<svg xmlns="http://www.w3.org/2000/svg" viewBox="0 0 100 100" width="100" height="100">
  <circle cx="50" cy="50" r="45" fill="#3b82f6" stroke="#1d4ed8" stroke-width="2"/>
  <circle cx="50" cy="50" r="40" fill="#60a5fa" opacity="0.8"/>
  
  <!-- Goat head -->
  <ellipse cx="50" cy="45" rx="18" ry="15" fill="#ffffff"/>
  
  <!-- Goat ears -->
  <ellipse cx="38" cy="35" rx="4" ry="8" fill="#ffffff" transform="rotate(-30 38 35)"/>
  <ellipse cx="62" cy="35" rx="4" ry="8" fill="#ffffff" transform="rotate(30 62 35)"/>
  
  <!-- Goat horns -->
  <path d="M42 30 L40 22" stroke="#4b5563" stroke-width="2" stroke-linecap="round"/>
  <path d="M58 30 L60 22" stroke="#4b5563" stroke-width="2" stroke-linecap="round"/>
  
  <!-- Goat eyes -->
  <circle cx="45" cy="42" r="2" fill="#1f2937"/>
  <circle cx="55" cy="42" r="2" fill="#1f2937"/>
  
  <!-- Goat nose -->
  <ellipse cx="50" cy="48" rx="2" ry="1" fill="#ef4444"/>
  
  <!-- Goat mouth -->
  <path d="M48 52 Q50 54 52 52" stroke="#1f2937" stroke-width="1.5" fill="none" stroke-linecap="round"/>
  
  <!-- Goat beard -->
  <ellipse cx="50" cy="58" rx="3" ry="6" fill="#ffffff"/>
  
  <!-- Certificate symbol -->
  <rect x="42" y="65" width="16" height="12" rx="2" fill="#fbbf24" stroke="#f59e0b" stroke-width="1"/>
  <path d="M46 70 L48 72 L54 66" stroke="#1f2937" stroke-width="1.5" fill="none" stroke-linecap="round" stroke-linejoin="round"/>
</svg>